<svg width="47" height="49" viewBox="0 0 47 49" fill="none" xmlns="http://www.w3.org/2000/svg">
<path fill-rule="evenodd" clip-rule="evenodd" d="M23.068 12.2114C16.5429 12.2114 11.2487 17.7169 11.2487 24.5034C11.2487 31.2898 16.5429 36.7954 23.068 36.7954C29.5934 36.7954 34.8872 31.2898 34.8872 24.5034C34.8872 17.7169 29.5934 12.2114 23.068 12.2114ZM23.068 32.4769C18.8348 32.4769 15.4011 28.9062 15.4011 24.5034C15.4011 20.1005 18.8348 16.5298 23.068 16.5298C27.3014 16.5298 30.7348 20.1005 30.7348 24.5034C30.7348 28.9062 27.3014 32.4769 23.068 32.4769Z" fill="white"/>
<path d="M35.3545 14.595C36.8786 14.595 38.1141 13.3101 38.1141 11.7254C38.1141 10.1403 36.8786 8.85578 35.3545 8.85578C33.8307 8.85578 32.5952 10.1403 32.5952 11.7254C32.5952 13.3101 33.8307 14.595 35.3545 14.595Z" fill="white"/>
<path fill-rule="evenodd" clip-rule="evenodd" d="M45.9424 14.6418C45.8346 12.0993 45.4393 10.3514 44.8729 8.8368C44.2887 7.2291 43.3899 5.78972 42.2124 4.59317C41.0618 3.37799 39.6687 2.43374 38.1407 1.83565C36.6759 1.24668 35.004 0.835534 32.5594 0.723437C30.0964 0.601846 29.3146 0.57373 23.0679 0.57373C16.8212 0.57373 16.0393 0.601846 13.5855 0.713943C11.1409 0.826041 9.46019 1.23755 8.0042 1.82615C6.45799 2.43374 5.07397 3.3685 3.92344 4.59317C2.755 5.78972 1.84742 7.23859 1.27197 8.82767C0.70566 10.3514 0.310328 12.0898 0.202542 14.6323C0.085628 17.1937 0.0585938 18.0069 0.0585938 24.5034C0.0585938 30.9999 0.085628 31.8131 0.193414 34.3651C0.3012 36.9075 0.696883 38.6554 1.2632 40.17C1.84742 41.7777 2.755 43.2171 3.92344 44.4136C5.07397 45.6288 6.46711 46.5731 7.99508 47.1712C9.46019 47.7601 11.1317 48.1713 13.5768 48.2834C16.0302 48.3958 16.8125 48.4236 23.0591 48.4236C29.3058 48.4236 30.0877 48.3958 32.5415 48.2834C34.9861 48.1713 36.6668 47.7601 38.1228 47.1712C41.2149 45.9279 43.6596 43.3854 44.855 40.17C45.421 38.6463 45.8167 36.9075 45.9245 34.3651C46.0323 31.8131 46.0593 30.9999 46.0593 24.5034C46.0593 18.0069 46.0502 17.1937 45.9424 14.6418ZM41.7991 34.1781C41.7001 36.515 41.3227 37.7769 41.0081 38.6182C40.235 40.7027 38.6442 42.3572 36.6398 43.1612C35.8309 43.4884 34.6087 43.8809 32.3705 43.9835C29.9437 44.096 29.2159 44.1237 23.077 44.1237C16.9381 44.1237 16.2012 44.096 13.7832 43.9835C11.5362 43.8809 10.3228 43.4884 9.51391 43.1612C8.51645 42.7778 7.60852 42.1702 6.87157 41.3757C6.10759 40.5998 5.52337 39.665 5.15472 38.6277C4.84014 37.7864 4.46272 36.515 4.36406 34.1876C4.25592 31.6638 4.22924 30.9065 4.22924 24.522C4.22924 18.1376 4.25592 17.3712 4.36406 14.8568C4.46272 12.5199 4.84014 11.258 5.15472 10.4168C5.52337 9.37903 6.10759 8.43515 6.8807 7.66836C7.62643 6.87382 8.52523 6.26623 9.52304 5.8832C10.332 5.55604 11.5545 5.16351 13.7923 5.06054C16.2191 4.94845 16.9473 4.92033 23.0858 4.92033C29.2338 4.92033 29.9616 4.94845 32.3796 5.06054C34.6266 5.16351 35.84 5.55604 36.6489 5.8832C37.6464 6.26623 38.5543 6.87382 39.2912 7.66836C40.0552 8.44428 40.6395 9.37903 41.0081 10.4168C41.3227 11.258 41.7001 12.5291 41.7991 14.8568C41.9069 17.3807 41.9339 18.1376 41.9339 24.522C41.9339 30.9065 41.9069 31.6543 41.7991 34.1781Z" fill="white"/>
</svg>
