<svg width="47" height="41" viewBox="0 0 47 41" fill="none" xmlns="http://www.w3.org/2000/svg">
    <path d="M45.7899 5.43428C45.0671 5.76768 44.3239 6.04907 43.5646 6.27752C44.4636 5.22019 45.149 3.97609 45.5674 2.61469C45.6612 2.30953 45.564 1.97551 45.3228 1.77593C45.0819 1.57619 44.7472 1.55227 44.482 1.71573C42.8694 2.71039 41.1297 3.4252 39.3055 3.84319C37.4679 1.97582 34.9721 0.913086 32.3921 0.913086C26.9459 0.913086 22.515 5.52103 22.515 11.1849C22.515 11.631 22.5422 12.0746 22.5959 12.512C15.8377 11.8949 9.55474 8.44033 5.24024 2.93621C5.08647 2.74002 4.8496 2.63429 4.60709 2.65451C4.36442 2.67427 4.1464 2.81658 4.0238 3.0353C3.14873 4.59691 2.68612 6.38294 2.68612 8.20015C2.68612 10.6752 3.53581 13.0236 5.03675 14.8585C4.58037 14.6942 4.13749 14.4887 3.7148 14.2447C3.48787 14.1133 3.21092 14.1153 2.98547 14.2498C2.75988 14.3842 2.61844 14.6315 2.6125 14.9018C2.61146 14.9473 2.61146 14.9928 2.61146 15.039C2.61146 18.7334 4.52338 22.0596 7.44646 23.8725C7.19534 23.8464 6.94437 23.8086 6.69502 23.7591C6.43797 23.708 6.17363 23.8017 6.00028 24.0056C5.82663 24.2093 5.7692 24.4933 5.84919 24.7527C6.93116 28.2658 9.71681 30.8498 13.0844 31.6376C10.2913 33.457 7.09724 34.41 3.74419 34.41C3.04454 34.41 2.3409 34.3672 1.65224 34.2825C1.31014 34.2402 0.983024 34.4503 0.866516 34.7886C0.750008 35.1271 0.873492 35.5045 1.16454 35.6985C5.47206 38.5709 10.4528 40.0891 15.568 40.0891C25.6239 40.0891 31.9146 35.1575 35.421 31.0204C39.7933 25.8617 42.301 19.0335 42.301 12.2868C42.301 12.005 42.2968 11.7204 42.2885 11.4367C44.0136 10.085 45.4988 8.44913 46.7074 6.56894C46.891 6.28338 46.8711 5.90599 46.6584 5.64312C46.446 5.3801 46.092 5.29505 45.7899 5.43428Z" fill="white"/>
</svg>